<svg xmlns="http://www.w3.org/2000/svg" viewBox="0 0 1024 1024" width="1024" height="1024">
  <defs>
  <linearGradient id="matte" x1="0" y1="0" x2="0" y2="1">
    <stop offset="0%" stop-color="#FFFFFF"/>
    <stop offset="100%" stop-color="#E4E4E6"/>
  </linearGradient>
  <linearGradient id="matteGold" x1="0" y1="0" x2="0" y2="1">
    <stop offset="0%" stop-color="#E8D2A0"/>
    <stop offset="100%" stop-color="#C4A662"/>
  </linearGradient>
  <linearGradient id="silver" x1="0" y1="0" x2="0.15" y2="1">
    <stop offset="0%" stop-color="#FFFFFF"/>
    <stop offset="30%" stop-color="#F0F0F0"/>
    <stop offset="55%" stop-color="#B9B9B9"/>
    <stop offset="78%" stop-color="#DEDEDE"/>
    <stop offset="100%" stop-color="#FFFFFF"/>
  </linearGradient>
  <linearGradient id="gold" x1="0" y1="0" x2="0.15" y2="1">
    <stop offset="0%" stop-color="#F7E9C0"/>
    <stop offset="32%" stop-color="#E3CB93"/>
    <stop offset="58%" stop-color="#A8873F"/>
    <stop offset="80%" stop-color="#D9C08A"/>
    <stop offset="100%" stop-color="#F2E3B6"/>
  </linearGradient>
  <radialGradient id="bg" cx="50%" cy="30%" r="82%">
    <stop offset="0%" stop-color="#1B1B1F"/>
    <stop offset="55%" stop-color="#101012"/>
    <stop offset="100%" stop-color="#070709"/>
  </radialGradient>
  <filter id="soft" x="-30%" y="-30%" width="160%" height="160%">
    <feGaussianBlur stdDeviation="10" result="b"/>
    <feColorMatrix in="b" type="matrix" values="1 0 0 0 0  0 1 0 0 0  0 0 1 0 0  0 0 0 .22 0"/>
    <feBlend in="SourceGraphic"/>
  </filter></defs>
  <rect width="1024" height="1024" fill="url(#bg)"/>
  
  <mask id="ringMask">
    <rect width="1024" height="1024" fill="white"/>
    <rect x="392" y="120" width="240" height="140" fill="black"/>
  </mask>
  <g filter="url(#soft)">
    <g mask="url(#ringMask)">
      <circle cx="512" cy="512" r="336" fill="none" stroke="url(#matte)" stroke-width="6"/>
      <circle cx="512" cy="512" r="312" fill="none" stroke="#45454A" stroke-width="1.5"/>
    </g>
    <g transform="translate(407,150)"><g>
      <path d="M73.5 96.60000000000001 Q95.55 55.062000000000005 105 13.524000000000001
       Q114.45 55.062000000000005 136.5 96.60000000000001Z" fill="url(#matte)"/>
      <path d="M9.45 96.60000000000001 Q26.355 68.58600000000001 33.6 40.57200000000001
       Q40.845 68.58600000000001 57.75 96.60000000000001Z" fill="url(#matte)"/>
      <path d="M152.25 96.60000000000001 Q169.155 68.58600000000001 176.4 40.57200000000001
       Q183.645 68.58600000000001 200.55 96.60000000000001Z" fill="url(#matte)"/>
      <circle cx="105" cy="8.904" r="5.88" fill="url(#matte)"/>
      <circle cx="33.6" cy="36.37200000000001" r="5.88" fill="url(#matte)"/>
      <circle cx="176.4" cy="36.37200000000001" r="5.88" fill="url(#matte)"/>
      <rect x="0" y="96.60000000000001" width="210" height="15.75" fill="url(#matte)"/>
      <rect x="12.6" y="118.65" width="184.8" height="3.78" fill="url(#matte)" opacity="0.75"/>
    </g></g>
    <g transform="translate(412.25,352)"><g>
      <rect x="0.00" y="0.00" width="71.75" height="350.00" fill="url(#matte)"/>
      <rect x="0.00" y="0.00" width="185.50" height="34.30" fill="url(#matte)"/><rect x="178.85" y="-4.20" width="6.65" height="42.70" fill="url(#matte)"/>
      <rect x="0.00" y="161.35" width="143.50" height="27.30" fill="url(#matte)"/><rect x="136.85" y="157.15" width="6.65" height="35.70" fill="url(#matte)"/>
      <rect x="0.00" y="312.20" width="199.50" height="37.80" fill="url(#matte)"/><rect x="192.85" y="308.00" width="6.65" height="46.20" fill="url(#matte)"/>
    </g></g>
  </g>
  <path id="arc" d="M262 512 A250 250 0 0 0 762 512" fill="none"/>
  <text fill="#C4C4C4" font-family="Charter,'Bitstream Charter','Liberation Serif','DejaVu Serif',serif" font-size="34" letter-spacing="16">
    <textPath href="#arc" startOffset="50%" text-anchor="middle">EMPERIUM</textPath>
  </text>
</svg>